<?xml version="1.0" encoding="UTF-8"?>
<svg xmlns="http://www.w3.org/2000/svg" xmlns:xlink="http://www.w3.org/1999/xlink" width="100px" height="100px" viewBox="0 0 100 100" version="1.1">
<g id="surface1">
<path style=" stroke:none;fill-rule:nonzero;fill:rgb(0%,64.313725%,33.72549%);fill-opacity:1;" d="M 93.296875 24.902344 C 88.824219 17.242188 82.757812 11.175781 75.097656 6.707031 C 67.4375 2.234375 59.074219 0 50 0 C 40.929688 0 32.5625 2.234375 24.902344 6.707031 C 17.242188 11.175781 11.175781 17.242188 6.707031 24.902344 C 2.234375 32.5625 0 40.929688 0 50 C 0 59.070312 2.234375 67.4375 6.707031 75.097656 C 11.175781 82.757812 17.242188 88.824219 24.902344 93.292969 C 32.5625 97.765625 40.929688 100 50 100 C 59.070312 100 67.4375 97.765625 75.097656 93.292969 C 82.757812 88.824219 88.824219 82.757812 93.292969 75.097656 C 97.765625 67.4375 100 59.070312 100 50 C 100 40.929688 97.765625 32.5625 93.296875 24.902344 Z M 82.421875 42.382812 L 47.070312 77.734375 C 46.246094 78.558594 45.25 78.972656 44.074219 78.972656 C 42.949219 78.972656 41.972656 78.558594 41.144531 77.734375 L 17.578125 54.167969 C 16.796875 53.386719 16.40625 52.410156 16.40625 51.238281 C 16.40625 50.023438 16.796875 49.023438 17.578125 48.242188 L 23.503906 42.382812 C 24.328125 41.558594 25.304688 41.144531 26.433594 41.144531 C 27.5625 41.144531 28.539062 41.558594 29.363281 42.382812 L 44.078125 57.097656 L 70.640625 30.597656 C 71.464844 29.773438 72.441406 29.363281 73.566406 29.363281 C 74.695312 29.363281 75.671875 29.773438 76.496094 30.597656 L 82.421875 36.457031 C 83.203125 37.238281 83.59375 38.238281 83.59375 39.453125 C 83.59375 40.625 83.203125 41.601562 82.421875 42.382812 Z M 82.421875 42.382812 "/>
</g>
</svg>
