<?xml version="1.0" encoding="UTF-8"?>
<svg xmlns="http://www.w3.org/2000/svg" xmlns:xlink="http://www.w3.org/1999/xlink" width="100px" height="100px" viewBox="0 0 100 100" version="1.1">
<g id="surface1">
<path style=" stroke:none;fill-rule:nonzero;fill:rgb(0%,61.960784%,34.117647%);fill-opacity:1;" d="M 25.234375 57.210938 C 25.59375 57.902344 26.304688 58.332031 27.082031 58.332031 L 41.667969 58.332031 L 41.667969 85.417969 C 41.667969 86.324219 42.257812 87.128906 43.125 87.40625 C 43.332031 87.46875 43.542969 87.5 43.75 87.5 C 44.417969 87.5 45.058594 87.179688 45.453125 86.609375 L 74.621094 44.945312 C 75.070312 44.308594 75.121094 43.476562 74.765625 42.789062 C 74.40625 42.097656 73.695312 41.667969 72.917969 41.667969 L 58.332031 41.667969 L 58.332031 14.582031 C 58.332031 13.675781 57.742188 12.871094 56.875 12.597656 C 56.003906 12.320312 55.0625 12.644531 54.542969 13.390625 L 25.378906 55.054688 C 24.929688 55.691406 24.878906 56.523438 25.234375 57.210938 Z M 25.234375 57.210938 "/>
<path style=" stroke:none;fill-rule:nonzero;fill:rgb(0%,61.960784%,34.117647%);fill-opacity:1;" d="M 98.246094 36.507812 C 94.011719 21.019531 82.0625 8.789062 67.085938 2.945312 L 66.25 2.617188 C 65.175781 2.199219 63.964844 2.730469 63.546875 3.800781 L 62.027344 7.683594 C 61.609375 8.753906 62.136719 9.960938 63.210938 10.382812 L 64.085938 10.722656 C 76.800781 15.683594 86.949219 26.125 90.355469 39.324219 C 91.808594 44.960938 92.042969 50.738281 91.191406 56.3125 L 85.835938 56.34375 C 85.191406 56.347656 84.582031 56.648438 84.191406 57.160156 C 83.796875 57.671875 83.664062 58.335938 83.832031 58.960938 L 88.40625 76.234375 C 88.617188 77.035156 89.285156 77.632812 90.101562 77.761719 C 90.210938 77.777344 90.316406 77.785156 90.425781 77.785156 C 91.128906 77.785156 91.796875 77.429688 92.183594 76.824219 C 94.890625 72.589844 96.90625 68.019531 98.230469 63.195312 C 98.230469 63.195312 98.585938 61.660156 98.753906 60.910156 C 98.917969 60.183594 99.238281 58.570312 99.242188 58.488281 C 100.484375 51.28125 100.234375 43.78125 98.246094 36.507812 Z M 98.246094 36.507812 "/>
<path style=" stroke:none;fill-rule:nonzero;fill:rgb(0%,61.960784%,34.117647%);fill-opacity:1;" d="M 80.625 81.546875 C 79.90625 80.648438 78.589844 80.503906 77.691406 81.222656 L 76.960938 81.804688 C 66.300781 90.324219 52.167969 93.875 39.015625 90.222656 C 33.402344 88.660156 28.273438 85.976562 23.863281 82.453125 L 26.515625 77.804688 C 26.835938 77.246094 26.878906 76.570312 26.628906 75.976562 C 26.382812 75.378906 25.871094 74.933594 25.25 74.761719 L 7.976562 70.082031 C 7.179688 69.867188 6.328125 70.144531 5.804688 70.785156 C 5.738281 70.871094 5.675781 70.960938 5.625 71.050781 C 5.273438 71.660156 5.25 72.417969 5.578125 73.054688 C 7.898438 77.511719 10.855469 81.542969 14.375 85.097656 C 14.375 85.097656 15.527344 86.171875 16.097656 86.691406 C 16.648438 87.199219 17.882812 88.28125 17.953125 88.328125 C 23.582031 93.003906 30.214844 96.539062 37.511719 98.453125 C 53.0625 102.539062 69.648438 98.316406 82.203125 88.289062 L 82.90625 87.730469 C 83.804688 87.011719 83.953125 85.703125 83.230469 84.800781 Z M 80.625 81.546875 "/>
<path style=" stroke:none;fill-rule:nonzero;fill:rgb(0%,61.960784%,34.117647%);fill-opacity:1;" d="M 9.011719 58.324219 L 8.871094 57.398438 C 6.8125 43.921875 10.796875 29.925781 20.542969 20.378906 C 24.703125 16.304688 29.597656 13.210938 34.855469 11.160156 L 37.5625 15.777344 C 37.886719 16.332031 38.453125 16.707031 39.09375 16.789062 C 39.734375 16.875 40.375 16.65625 40.832031 16.203125 L 53.527344 3.609375 C 54.117188 3.027344 54.300781 2.152344 54.003906 1.378906 C 53.964844 1.277344 53.917969 1.179688 53.863281 1.089844 C 53.511719 0.480469 52.867188 0.0820312 52.152344 0.0507812 C 47.125 -0.175781 42.152344 0.367188 37.308594 1.636719 C 37.308594 1.636719 35.800781 2.09375 35.0625 2.324219 C 34.347656 2.546875 32.792969 3.074219 32.71875 3.113281 C 25.847656 5.644531 19.464844 9.609375 14.152344 14.964844 C 2.835938 26.367188 -1.792969 42.820312 0.625 58.691406 L 0.757812 59.578125 C 0.933594 60.714844 1.996094 61.496094 3.136719 61.324219 L 7.261719 60.695312 C 8.402344 60.523438 9.183594 59.460938 9.011719 58.324219 Z M 9.011719 58.324219 "/>
</g>
</svg>
