<?xml version="1.0" encoding="UTF-8"?>
<svg xmlns="http://www.w3.org/2000/svg" xmlns:xlink="http://www.w3.org/1999/xlink" width="100px" height="100px" viewBox="0 0 100 100" version="1.1">
<g id="surface1">
<path style=" stroke:none;fill-rule:nonzero;fill:rgb(0%,64.313725%,33.72549%);fill-opacity:1;" d="M 28.320312 40.136719 L 4.882812 40.136719 C 2.1875 40.136719 0 42.324219 0 45.019531 C 0 47.714844 2.1875 49.902344 4.882812 49.902344 L 28.320312 49.902344 C 31.015625 49.902344 33.203125 47.714844 33.203125 45.019531 C 33.203125 42.324219 31.015625 40.136719 28.320312 40.136719 Z M 28.320312 40.136719 "/>
<path style=" stroke:none;fill-rule:nonzero;fill:rgb(0%,64.313725%,33.72549%);fill-opacity:1;" d="M 30.273438 53.808594 L 8.789062 53.808594 C 6.09375 53.808594 3.90625 55.996094 3.90625 58.691406 C 3.90625 61.386719 6.09375 63.574219 8.789062 63.574219 L 30.273438 63.574219 C 32.96875 63.574219 35.15625 61.386719 35.15625 58.691406 C 35.15625 55.996094 32.96875 53.808594 30.273438 53.808594 Z M 30.273438 53.808594 "/>
<path style=" stroke:none;fill-rule:nonzero;fill:rgb(0%,64.313725%,33.72549%);fill-opacity:1;" d="M 32.226562 67.480469 L 10.742188 67.480469 C 8.046875 67.480469 5.859375 69.667969 5.859375 72.363281 C 5.859375 75.058594 8.046875 77.246094 10.742188 77.246094 L 32.226562 77.246094 C 34.921875 77.246094 37.109375 75.058594 37.109375 72.363281 C 37.109375 69.667969 34.921875 67.480469 32.226562 67.480469 Z M 32.226562 67.480469 "/>
<path style=" stroke:none;fill-rule:nonzero;fill:rgb(0%,64.313725%,33.72549%);fill-opacity:1;" d="M 30.273438 81.152344 L 14.648438 81.152344 C 11.953125 81.152344 9.765625 83.339844 9.765625 86.035156 C 9.765625 88.730469 11.953125 90.917969 14.648438 90.917969 L 30.273438 90.917969 C 32.96875 90.917969 35.15625 88.730469 35.15625 86.035156 C 35.15625 83.339844 32.96875 81.152344 30.273438 81.152344 Z M 30.273438 81.152344 "/>
<path style=" stroke:none;fill-rule:nonzero;fill:rgb(0%,64.313725%,33.72549%);fill-opacity:1;" d="M 64.289062 48.144531 L 55.789062 31.238281 C 53.265625 26.21875 51.953125 20.679688 51.953125 15.0625 C 51.953125 11.871094 49.449219 9.171875 46.257812 9.085938 C 42.945312 8.992188 40.234375 11.652344 40.234375 14.941406 C 40.234375 22.410156 41.242188 29.847656 43.234375 37.046875 L 44.140625 40.332031 L 35.75 40.332031 C 36.609375 41.691406 37.109375 43.296875 37.109375 45.019531 C 37.109375 47.371094 36.179688 49.507812 34.671875 51.085938 C 37.292969 52.609375 39.0625 55.445312 39.0625 58.691406 C 39.0625 61.042969 38.132812 63.179688 36.625 64.757812 C 39.246094 66.28125 41.015625 69.117188 41.015625 72.363281 C 41.015625 75.609375 39.246094 78.445312 36.625 79.96875 C 38.132812 81.546875 39.0625 83.683594 39.0625 86.035156 C 39.0625 87.839844 38.515625 89.519531 37.578125 90.917969 L 57.8125 90.917969 C 61.046875 90.917969 63.671875 88.292969 63.671875 85.058594 L 63.671875 79.199219 L 100 79.199219 L 100 48.144531 Z M 64.289062 48.144531 "/>
</g>
</svg>
